<?xml version="1.0" encoding="UTF-8"?>
<svg version="1.1" xmlns="http://www.w3.org/2000/svg" width="3200" height="3200">
<path d="M0 0 C4.16530372 0.00825718 8.33058003 -0.00141964 12.49588074 -0.00851054 C19.78218971 -0.01856872 27.068431 -0.01778314 34.35474124 -0.00945991 C45.26259916 0.00294337 56.17040337 -0.00226179 67.07826268 -0.01060784 C85.67924138 -0.02433701 104.28019538 -0.02399259 122.88117625 -0.0157652 C141.71001587 -0.00748798 160.53883925 -0.00578918 179.36767985 -0.01197721 C181.15692168 -0.01255849 181.15692168 -0.01255849 182.9823098 -0.01315151 C187.84115593 -0.01475146 192.70000205 -0.01639761 197.55884815 -0.01810233 C242.73184398 -0.03394 287.90483054 -0.03507082 333.07782771 -0.02665998 C334.42775403 -0.02640907 335.77768036 -0.02615817 337.12760668 -0.02590729 C338.13116222 -0.02572074 338.13116222 -0.02572074 339.15499162 -0.02553042 C347.97894454 -0.02389068 356.80289745 -0.02228084 365.62685039 -0.02075054 C366.30143766 -0.02063305 366.97602494 -0.02051557 367.67105425 -0.02039453 C398.98397096 -0.01498195 430.29688623 -0.01627935 461.60980314 -0.0190419 C465.02962493 -0.01934129 468.44944672 -0.01962779 471.8692685 -0.01991573 C482.17794773 -0.02078756 492.48662696 -0.02167839 502.79530619 -0.02260853 C534.22765036 -0.0254416 565.65999454 -0.0272427 597.09233882 -0.02815343 C597.79209899 -0.02817404 598.49185915 -0.02819464 599.21282417 -0.02821587 C644.50566073 -0.02953136 689.79849567 -0.0262335 735.09133174 -0.0196047 C735.81398598 -0.01949934 736.53664023 -0.01939399 737.28119308 -0.01928544 C761.48388038 -0.01575676 785.68656765 -0.01198838 809.88925491 -0.00819555 C883.06972538 0.00326487 956.25019009 0.00954647 1086.94403364 -0.00854154 C1111.14072618 -0.01233139 1135.33741871 -0.01607709 1159.53411128 -0.0196047 C1160.61779147 -0.0197633 1160.61779147 -0.0197633 1161.72336419 -0.0199251 C1206.99327774 -0.02654484 1252.26319017 -0.02948646 1297.5331042 -0.02815343 C1298.58238885 -0.02812303 1298.58238885 -0.02812303 1299.65287116 -0.02809201 C1331.06799599 -0.02717169 1362.48312071 -0.02525646 1393.89824542 -0.02242192 C1404.2022696 -0.02149335 1414.50629377 -0.02061034 1424.81031795 -0.01974278 C1428.22816388 -0.0194548 1431.6460098 -0.01916274 1435.06385573 -0.0188612 C1466.37543542 -0.01610717 1497.68701318 -0.01529745 1528.99859264 -0.02075054 C1529.67274902 -0.02086745 1530.3469054 -0.02098437 1531.04149076 -0.02110483 C1539.86027263 -0.02264 1548.67905449 -0.02426797 1557.49783635 -0.02590729 C1558.50059136 -0.02609365 1558.50059136 -0.02609365 1559.52360406 -0.02628378 C1560.87229326 -0.02653446 1562.22098246 -0.02678535 1563.56967166 -0.02703647 C1609.28910216 -0.03552689 1655.00852076 -0.0328584 1700.72794964 -0.01681775 C1705.5712208 -0.01516078 1710.41449198 -0.01355066 1715.25776317 -0.01197721 C1716.44633732 -0.01158659 1717.63491147 -0.01119597 1718.85950302 -0.01079351 C1737.63253079 -0.00489066 1756.40554228 -0.00898074 1775.17856857 -0.01728423 C1793.66547508 -0.02524618 1812.1523543 -0.02238704 1830.63925737 -0.00824196 C1841.4580444 -0.00027845 1852.27675637 -0.00032834 1863.0955397 -0.01268675 C1870.30654453 -0.02008939 1877.51749167 -0.01636202 1884.72848962 -0.00408619 C1888.79939738 0.00254798 1892.87015723 0.00495424 1896.94105763 -0.00653574 C1913.65155381 -0.05029665 1930.21497751 0.39668385 1946.87503173 1.76519619 C1947.62468186 1.82667427 1948.37433198 1.88815234 1949.14669878 1.95149339 C2029.46308399 8.68097857 2107.45213381 30.74946021 2311.23850276 150.77675723 C2314.00971306 153.14086785 2316.84199341 155.42066556 2319.68772151 157.69472598 C2326.26232845 163.04436976 2332.36103114 168.88667353 2338.51975276 174.70253848 C2341.06639185 177.0882788 2343.65923645 179.41970684 2346.25022151 181.75722598 C2351.15880841 186.24678717 2355.9126496 190.87505609 2360.62522151 195.56972598 C2361.28320735 196.22311953 2361.94119319 196.87651309 2362.619118 197.54970645 C2366.44824641 201.39093245 2370.08312728 205.34610021 2373.6269305 209.45131777 C2376.23580084 212.43952278 2378.96639466 215.30935341 2381.68772151 218.19472598 C2387.16725255 224.05694946 2392.30210449 230.1127432 2397.31272151 236.38222598 C2398.31759593 237.60882849 2399.32422446 238.83399528 2400.33225276 240.05800723 C2456.80273602 308.73901271 2499.30671959 389.72944185 2547.69494749 653.06950447 C2547.6866903 657.23480819 2547.69636713 661.4000845 2547.70345803 665.56538521 C2547.7135162 672.85169418 2547.71273063 680.13793547 2547.7044074 687.4242457 C2547.69200411 698.33210363 2547.69720928 709.23990784 2547.70555532 720.14776715 C2547.7192845 738.74874585 2547.71894008 757.34969984 2547.71071269 775.95068072 C2547.70243547 794.77952033 2547.70073667 813.60834372 2547.7069247 832.43718432 C2547.70731222 833.6300122 2547.70769973 834.82284008 2547.70809899 836.05181426 C2547.70969895 840.9106604 2547.7113451 845.76950651 2547.71304982 850.62835261 C2547.72888749 895.80134845 2547.73001831 940.974335 2547.72160747 986.14733218 C2547.72135656 987.4972585 2547.72110566 988.84718482 2547.72085478 990.19711114 C2547.72066823 991.20066669 2547.72066823 991.20066669 2547.72047791 992.22449609 C2547.71883817 1001.048449 2547.71722832 1009.87240192 2547.71569802 1018.69635485 C2547.71558054 1019.37094213 2547.71546306 1020.04552941 2547.71534202 1020.74055872 C2547.70992943 1052.05347542 2547.71122684 1083.3663907 2547.71398939 1114.67930761 C2547.71428878 1118.0991294 2547.71457528 1121.51895118 2547.71486322 1124.93877297 C2547.71573505 1135.2474522 2547.71662588 1145.55613143 2547.71755601 1155.86481065 C2547.72038909 1187.29715482 2547.72219019 1218.729499 2547.72310092 1250.16184329 C2547.72312153 1250.86160345 2547.72314213 1251.56136362 2547.72316336 1252.28232864 C2547.72447885 1297.5751652 2547.72118098 1342.86800014 2547.71455218 1388.16083621 C2547.71444683 1388.88349045 2547.71434148 1389.60614469 2547.71423293 1390.35069755 C2547.71070425 1414.55338485 2547.70693587 1438.75607211 2547.70314304 1462.95875937 C2547.69168262 1536.13922985 2547.68540102 1609.31969456 2547.70348903 1740.01353811 C2547.70727888 1764.21023064 2547.71102458 1788.40692318 2547.71455218 1812.60361575 C2547.71465792 1813.32606921 2547.71476365 1814.04852267 2547.71487259 1814.79286866 C2547.72149233 1860.06278221 2547.72443395 1905.33269464 2547.72310092 1950.60260867 C2547.72307052 1951.65189331 2547.72307052 1951.65189331 2547.7230395 1952.72237563 C2547.72211918 1984.13750046 2547.72020395 2015.55262517 2547.71736941 2046.96774989 C2547.71644084 2057.27177406 2547.71555782 2067.57579824 2547.71469027 2077.87982242 C2547.71440229 2081.29766834 2547.71411023 2084.71551427 2547.71380869 2088.13336019 C2547.71105466 2119.44493989 2547.71024494 2150.75651765 2547.71569802 2182.0680971 C2547.71581494 2182.74225348 2547.71593186 2183.41640986 2547.71605232 2184.11099523 C2547.71758749 2192.9297771 2547.71921545 2201.74855896 2547.72085478 2210.56734081 C2547.72097902 2211.23584416 2547.72110326 2211.9043475 2547.72123126 2212.59310853 C2547.72148195 2213.94179773 2547.72173284 2215.29048693 2547.72198396 2216.63917613 C2547.73047438 2262.35860662 2547.72780589 2308.07802523 2547.71176524 2353.79745411 C2547.71010827 2358.64072527 2547.70849815 2363.48399644 2547.7069247 2368.32726763 C2547.70653408 2369.51584179 2547.70614346 2370.70441594 2547.705741 2371.92900749 C2547.69983815 2390.70203525 2547.70392823 2409.47504674 2547.71223171 2428.24807303 C2547.72019367 2446.73497954 2547.71733453 2465.22185877 2547.70318945 2483.70876184 C2547.69522593 2494.52754887 2547.69527583 2505.34626083 2547.70763424 2516.16504416 C2547.71503688 2523.37604899 2547.71130951 2530.58699613 2547.69903368 2537.79799409 C2547.69239951 2541.86890184 2547.68999325 2545.9396617 2547.70148323 2550.01056209 C2547.77927994 2579.64901511 2545.99942364 2609.17761114 2541.56272151 2638.50722598 C2541.4361114 2639.36545962 2541.3095013 2640.22369326 2541.17905452 2641.10793399 C2534.73597263 2684.67062398 2524.04231156 2726.88822529 2509.31272151 2768.38222598 C2509.08475886 2769.02744204 2508.85679622 2769.67265811 2508.62192561 2770.33742617 C2483.7146417 2840.71261501 2445.44827208 2907.57298188 2396.91819026 2964.30800723 C2394.55407964 2967.07921753 2392.27428193 2969.91149787 2390.00022151 2972.75722598 C2384.65057773 2979.33183291 2378.80827396 2985.43053561 2372.99240901 2991.58925723 C2370.60666869 2994.13589632 2368.27524065 2996.72874091 2365.93772151 2999.31972598 C2361.44816032 3004.22831288 2356.8198914 3008.98215407 2352.12522151 3013.69472598 C2351.47182796 3014.35271182 2350.8184344 3015.01069766 2350.14524104 3015.68862246 C2346.29384308 3019.52789081 2342.32853812 3023.17443713 2338.21237971 3026.72768496 C2335.40980436 3029.16863769 2332.71056022 3031.71500013 2330.00022151 3034.25722598 C2325.18651088 3038.7351775 2320.25061598 3042.98804145 2315.12131526 3047.10488223 C2312.55388016 3049.18668287 2310.03715305 3051.31367956 2307.52878596 3053.46547793 C2301.53073256 3058.60451586 2295.40231259 3063.48617562 2289.01486995 3068.1395502 C2287.17299978 3069.48423166 2285.34082246 3070.84160245 2283.50803401 3072.19863223 C2212.72052551 3124.28598264 2132.89504762 3161.8313118 1894.62544302 3200.76445195 C1890.4601393 3200.75619477 1886.29486299 3200.76587159 1882.12956228 3200.7729625 C1874.84325331 3200.78302067 1867.55701202 3200.7822351 1860.27070179 3200.77391187 C1849.36284386 3200.76150858 1838.45503965 3200.76671375 1827.54718034 3200.77505979 C1808.94620164 3200.78878897 1790.34524765 3200.78844454 1771.74426677 3200.78021716 C1752.91542715 3200.77193993 1734.08660377 3200.77024114 1715.25776317 3200.77642916 C1714.06493529 3200.77681668 1712.87210741 3200.7772042 1711.64313323 3200.77760346 C1706.78428709 3200.77920342 1701.92544098 3200.78084956 1697.06659488 3200.78255429 C1651.89359904 3200.79839195 1606.72061248 3200.79952277 1561.54761531 3200.79111193 C1560.19768899 3200.79086102 1558.84776267 3200.79061013 1557.49783635 3200.79035925 C1556.82879931 3200.79023488 1556.15976228 3200.79011051 1555.4704514 3200.78998238 C1546.64649849 3200.78834263 1537.82254557 3200.78673279 1528.99859264 3200.78520249 C1528.32400536 3200.78508501 1527.64941808 3200.78496752 1526.95438877 3200.78484648 C1495.64147206 3200.7794339 1464.32855679 3200.7807313 1433.01563988 3200.78349386 C1429.59581809 3200.78379325 1426.1759963 3200.78407975 1422.75617452 3200.78436768 C1412.44749529 3200.78523952 1402.13881606 3200.78613035 1391.83013684 3200.78706048 C1360.39779267 3200.78989356 1328.96544849 3200.79169465 1297.5331042 3200.79260539 C1296.83334404 3200.79262599 1296.13358387 3200.7926466 1295.41261885 3200.79266783 C1250.11978229 3200.79398331 1204.82694735 3200.79068545 1159.53411128 3200.78405665 C1158.81145704 3200.7839513 1158.0888028 3200.78384594 1157.34424994 3200.78373739 C1133.14156264 3200.78020871 1108.93887538 3200.77644033 1084.73618812 3200.7726475 C1011.55571764 3200.76118709 938.37525293 3200.75490548 807.68140938 3200.7729935 C783.48471685 3200.77678335 759.28802431 3200.78052905 735.09133174 3200.78405665 C734.36887828 3200.78416238 733.64642482 3200.78426812 732.90207883 3200.78437706 C687.63216528 3200.79099679 642.36225285 3200.79393842 597.09233882 3200.79260539 C596.39281572 3200.79258512 595.69329263 3200.79256485 594.97257186 3200.79254397 C563.55744703 3200.79162365 532.14232231 3200.78970841 500.7271976 3200.78687388 C490.42317343 3200.78594531 480.11914925 3200.78506229 469.81512507 3200.78419473 C466.39727915 3200.78390676 462.97943322 3200.78361469 459.5615873 3200.78331316 C428.2500076 3200.78055913 396.93842984 3200.77974941 365.62685039 3200.78520249 C364.95269401 3200.78531941 364.27853763 3200.78543632 363.58395226 3200.78555678 C354.76517039 3200.78709196 345.94638853 3200.78871992 337.12760668 3200.79035925 C336.12485166 3200.79054561 336.12485166 3200.79054561 335.10183896 3200.79073573 C333.75314976 3200.79098641 332.40446056 3200.79123731 331.05577136 3200.79148842 C285.33634087 3200.79997885 239.61692226 3200.79731035 193.89749338 3200.7812697 C189.05422222 3200.77961274 184.21095105 3200.77800261 179.36767985 3200.77642916 C178.1791057 3200.77603854 176.99053155 3200.77564792 175.76594 3200.77524546 C156.99291224 3200.76934262 138.21990074 3200.7734327 119.44687445 3200.78173618 C100.95996795 3200.78969813 82.47308872 3200.78683899 63.98618565 3200.77269392 C53.16739862 3200.7647304 42.34868665 3200.76478029 31.52990333 3200.77713871 C24.3188985 3200.78454135 17.10795135 3200.78081397 9.8969534 3200.76853815 C5.82604564 3200.76190397 1.75528579 3200.75949772 -2.31561461 3200.7709877 C-31.86314008 3200.84855278 -61.31834529 3199.08954539 -90.56227849 3194.69472598 C-91.41140813 3194.57039187 -92.26053777 3194.44605776 -93.13539861 3194.31795596 C-122.73048702 3189.96485836 -151.96788915 3183.76362204 -180.68727849 3175.38222598 C-181.32091313 3175.19744692 -181.95454778 3175.01266787 -182.60738347 3174.82228945 C-264.73515525 3150.79002245 -344.3153286 3110.75249174 -416.61305974 3049.98769473 C-419.38427004 3047.6235841 -422.21655038 3045.3437864 -425.06227849 3043.06972598 C-431.63688542 3037.7200822 -437.73558812 3031.87777843 -443.89430974 3026.06191348 C-446.44094883 3023.67617315 -449.03379342 3021.34474511 -451.62477849 3019.00722598 C-456.53336539 3014.51766479 -461.28720658 3009.88939587 -465.99977849 3005.19472598 C-466.65776433 3004.54133242 -467.31575017 3003.88793887 -467.99367497 3003.21474551 C-471.82280339 2999.3735195 -475.45768426 2995.41835175 -479.00148747 2991.31313418 C-481.61035058 2988.32493747 -484.34079872 2985.4549445 -487.06227849 2982.56972598 C-492.54304112 2976.71127755 -497.680457 2970.6523642 -502.68727849 2964.38222598 C-504.16508343 2962.58943597 -505.64427225 2960.79778588 -507.12477849 2959.00722598 C-562.88764182 2890.72420335 -604.89161859 2810.28451528 -653.06950447 2547.69494749 C-653.06124728 2543.52964377 -653.0709241 2539.36436745 -653.07801501 2535.19906675 C-653.08807318 2527.91275778 -653.08728761 2520.62651649 -653.07896438 2513.34020625 C-653.06656109 2502.43234833 -653.07176626 2491.52454411 -653.0801123 2480.61668481 C-653.09384148 2462.0157061 -653.09349705 2443.41475211 -653.08526967 2424.81377123 C-653.07699244 2405.98493162 -653.07529365 2387.15610824 -653.08148167 2368.32726763 C-653.08186919 2367.13443975 -653.08225671 2365.94161187 -653.08265597 2364.71263769 C-653.08425593 2359.85379156 -653.08590207 2354.99494544 -653.0876068 2350.13609934 C-653.10344447 2304.9631035 -653.10457528 2259.79011695 -653.09616444 2214.61711978 C-653.09591353 2213.26719345 -653.09566264 2211.91726713 -653.09541176 2210.56734081 C-653.09528739 2209.89830378 -653.09516302 2209.22926675 -653.09503489 2208.53995587 C-653.09339514 2199.71600295 -653.0917853 2190.89205003 -653.090255 2182.0680971 C-653.09013752 2181.39350983 -653.09002004 2180.71892255 -653.08989899 2180.02389323 C-653.08448641 2148.71097653 -653.08578382 2117.39806126 -653.08854637 2086.08514434 C-653.08884576 2082.66532256 -653.08913226 2079.24550077 -653.08942019 2075.82567898 C-653.09029203 2065.51699975 -653.09118286 2055.20832053 -653.09211299 2044.8996413 C-653.09494607 2013.46729713 -653.09674716 1982.03495295 -653.0976579 1950.60260867 C-653.0976785 1949.9028485 -653.09769911 1949.20308834 -653.09772034 1948.48212332 C-653.09903583 1903.18928676 -653.09573796 1857.89645181 -653.08910916 1812.60361575 C-653.08900381 1811.8809615 -653.08889845 1811.15830726 -653.08878991 1810.41375441 C-653.08526122 1786.21106711 -653.08149284 1762.00837984 -653.07770001 1737.80569258 C-653.0662396 1664.6252221 -653.059958 1591.4447574 -653.07804601 1460.75091384 C-653.08183586 1436.55422131 -653.08558156 1412.35752878 -653.08910916 1388.16083621 C-653.0892149 1387.43838275 -653.08932063 1386.71592929 -653.08942957 1385.9715833 C-653.0960493 1340.70166975 -653.09899093 1295.43175731 -653.0976579 1250.16184329 C-653.09763763 1249.46232019 -653.09761736 1248.76279709 -653.09759648 1248.04207633 C-653.09667616 1216.6269515 -653.09476092 1185.21182678 -653.09192639 1153.79670207 C-653.09099782 1143.49267789 -653.0901148 1133.18865372 -653.08924724 1122.88462954 C-653.08895927 1119.46678361 -653.0886672 1116.04893769 -653.08836567 1112.63109176 C-653.08561164 1081.31951207 -653.08480192 1050.0079343 -653.090255 1018.69635485 C-653.09037192 1018.02219847 -653.09048883 1017.34804209 -653.09060929 1016.65345673 C-653.09214447 1007.83467485 -653.09377243 999.015893 -653.09541176 990.19711114 C-653.095536 989.5286078 -653.09566024 988.86010445 -653.09578824 988.17134343 C-653.09603892 986.82265423 -653.09628982 985.47396503 -653.09654093 984.12527583 C-653.10503136 938.40584533 -653.10236286 892.68642673 -653.08632221 846.96699785 C-653.08466525 842.12372669 -653.08305512 837.28045551 -653.08148167 832.43718432 C-653.08109105 831.24861017 -653.08070043 830.06003602 -653.08029798 828.83544447 C-653.07439513 810.0624167 -653.07848521 791.28940521 -653.08678869 772.51637892 C-653.09475065 754.02947241 -653.09189151 735.54259319 -653.07774643 717.05569012 C-653.06978291 706.23690309 -653.06983281 695.41819112 -653.08219122 684.59940779 C-653.08959386 677.38840296 -653.08586649 670.17745582 -653.07359066 662.96645787 C-653.06695649 658.89555011 -653.06455023 654.82479026 -653.07604021 650.75388986 C-653.15383692 621.11543685 -651.37398062 591.58684082 -646.93727849 562.25722598 C-646.81066838 561.39899233 -646.68405827 560.54075869 -646.5536115 559.65651797 C-640.11052961 516.09382797 -629.41686854 473.87622666 -614.68727849 432.38222598 C-614.45931584 431.73700991 -614.2313532 431.09179385 -613.99648259 430.42702578 C-600.21089504 391.47603736 -582.09624053 353.69231612 -560.68727849 318.38222598 C-559.86163396 317.01179141 -559.86163396 317.01179141 -559.01930974 315.61367129 C-542.21991367 287.79091853 -523.42449761 261.16092384 -502.29274724 236.45644473 C-499.92863662 233.68523443 -497.64883891 230.85295408 -495.37477849 228.00722598 C-490.02513471 221.43261904 -484.18283094 215.33391634 -478.36696599 209.17519473 C-475.98122566 206.62855564 -473.64979762 204.03571104 -471.31227849 201.44472598 C-466.8227173 196.53613908 -462.19444838 191.78229789 -457.49977849 187.06972598 C-456.84638493 186.41174014 -456.19299138 185.7537543 -455.51979802 185.07582949 C-451.67857202 181.24670108 -447.72340426 177.61182021 -443.61818669 174.06801699 C-440.62998169 171.45914665 -437.76015105 168.72855283 -434.87477849 166.00722598 C-429.012555 160.52769494 -422.95676127 155.392843 -416.68727849 150.38222598 C-415.46067598 149.37735156 -414.23550918 148.37072303 -413.01149724 147.36269473 C-377.68355238 118.31556438 -339.20449816 93.55392818 -298.68727849 72.38222598 C-297.73063298 71.88126406 -296.77398747 71.38030215 -295.78835271 70.86415957 C-226.24569424 34.68691802 -149.76063048 12.85682832 -52.24958871 1.76519619 C-51.46069111 1.70039352 -50.67179351 1.63559084 -49.85898992 1.56882445 C-33.22871288 0.23243958 -16.67595524 -0.04706732 0 0 Z " fill="#1976D2" transform="translate(652.6872784886509,-0.3822259772568941)"/>
<path d="M0 0 C3.29042065 0.00008112 6.58070164 -0.00686592 9.87109375 -0.02050781 C39.73105531 -0.14204647 69.42650573 0.90642676 99.13647461 4.06030273 C99.96135376 4.14556213 100.78623291 4.23082153 101.6361084 4.31866455 C154.64895207 9.80140481 208.90930067 18.1811477 260.19897461 32.90405273 C264.59127889 34.15675984 269.0115143 35.28737645 273.43701172 36.41625977 C282.08491598 38.62432481 290.59504534 40.94972536 299.01928711 43.91186523 C302.17357425 44.98524478 305.33148664 45.97632329 308.51928711 46.94311523 C379.06149651 68.5364399 448.47866312 98.15420207 511.99194336 135.78686523 C516.53840248 138.47965696 521.12473926 141.0894117 525.7355957 143.66992188 C537.02599432 150.00732634 547.86280733 156.93410105 558.63842773 164.10668945 C561.37868739 165.93053019 564.12306796 167.74787058 566.86932373 169.56265259 C586.54635944 182.56971008 605.73430458 195.99893645 624.42895508 210.3918457 C626.42193034 211.92422965 628.41967909 213.4498384 630.42163086 214.97045898 C641.94340564 223.75099367 653.16424033 232.90691859 664.18383789 242.30883789 C667.4564609 245.09813216 670.77842844 247.81235492 674.13647461 250.49780273 C680.12603217 255.36486634 685.69412714 260.65440657 691.30444336 265.94702148 C694.4887149 268.94615099 697.75753297 271.82954258 701.07397461 274.68139648 C703.45970166 276.80756527 705.67534482 279.0876428 707.91210938 281.3684082 C709.58704512 283.01393583 711.30495574 284.52302773 713.10131836 286.03295898 C718.98645296 291.15182117 724.4402634 296.71501465 729.94335938 302.23681641 C731.81976936 304.11858548 733.7014643 305.99495011 735.58374023 307.87084961 C746.4876068 318.76930097 746.4876068 318.76930097 751.37841797 324.58789062 C752.92680962 326.37626248 754.57293861 328.02936112 756.26147461 329.68530273 C759.27561043 332.65265596 762.06064794 335.75875566 764.82006836 338.96264648 C767.04951522 341.51507156 769.34148843 344.00417787 771.63647461 346.49780273 C775.68668752 350.93781058 779.51681583 355.50464555 783.28881836 360.18139648 C786.17031094 363.68197752 789.14892023 367.08787599 792.13647461 370.49780273 C797.74662507 376.92620151 803.07615195 383.52411032 808.28540039 390.27954102 C809.8801894 392.33857559 811.48959752 394.38559163 813.10131836 396.43139648 C820.71073521 406.11119382 828.02900988 415.96069967 835.17895508 425.98364258 C836.70133083 428.10162846 838.24426413 430.20251271 839.79663086 432.29858398 C894.45247524 506.36304348 937.42480582 590.64858469 988.03979492 734.66967773 C988.87006746 737.5638348 989.71825388 740.45251412 990.56616211 743.34155273 C1003.88059116 788.95665483 1013.74071099 835.20076226 1020.76147461 882.18530273 C1020.86697632 882.88341064 1020.97247803 883.58151855 1021.08117676 884.30078125 C1023.54200683 900.58565672 1025.31745181 916.91965441 1026.88647461 933.31030273 C1026.96715179 934.13578613 1027.04782898 934.96126953 1027.13095093 935.81176758 C1030.14752513 967.00338592 1031.14456102 998.1835083 1031.07933044 1029.50570297 C1031.07387549 1032.23489266 1031.07151874 1034.96407364 1031.06945801 1037.69326782 C1031.03874501 1063.8126071 1030.57308703 1089.77203707 1027.99578857 1115.78302002 C1027.74995437 1118.30341291 1027.51879758 1120.82481576 1027.29125977 1123.34692383 C1024.87909041 1150.0512974 1022.26019099 1176.84885495 1016.94897461 1203.15405273 C1015.96377872 1208.05936375 1015.07309757 1212.97806855 1014.19897461 1217.90405273 C1010.90496385 1236.399414 1007.21024834 1254.65010936 1002.58911133 1272.8684082 C1001.77138178 1276.14559806 1000.99507031 1279.42965577 1000.23413086 1282.72045898 C997.22820767 1295.69886944 993.71208287 1308.41215572 989.70483398 1321.11572266 C988.80927168 1324.0297767 987.95773755 1326.95448025 987.1146698 1329.88407898 C983.85935233 1341.15516672 980.16632166 1352.26805018 976.38647461 1363.37280273 C976.03998871 1364.39187714 975.69350281 1365.41095154 975.33651733 1366.46090698 C968.45512537 1386.63579452 960.93169703 1406.49885863 952.76147461 1426.18530273 C952.34989105 1427.17835419 952.34989105 1427.17835419 951.92999268 1428.19146729 C921.01918284 1502.60224217 881.38360657 1573.18962426 833.76147461 1638.18530273 C832.58308365 1639.80118411 831.40469836 1641.41706962 830.22631836 1643.03295898 C823.25543159 1652.56767571 816.16071927 1661.97882243 808.76147461 1671.18530273 C808.2472998 1671.82564453 807.733125 1672.46598633 807.20336914 1673.12573242 C800.301876 1681.70439827 793.30106645 1690.19194474 786.1472168 1698.5612793 C784.70418369 1700.25244494 783.26772644 1701.94904893 781.83178711 1703.64624023 C776.33065926 1710.12932836 770.7186003 1716.47956338 764.92114258 1722.69946289 C762.20923994 1725.60924897 759.54515421 1728.54687998 756.94897461 1731.56030273 C754.29272441 1734.63460684 751.48048833 1737.48984055 748.58081055 1740.33349609 C746.92460353 1742.01926236 745.40365888 1743.74942636 743.88256836 1745.55639648 C738.90478747 1751.27933051 733.50720902 1756.58885556 728.13720703 1761.93994141 C726.32786528 1763.74392359 724.52393142 1765.55318938 722.72045898 1767.36303711 C717.39010862 1772.69614013 712.05993597 1777.95657465 706.31591797 1782.84912109 C704.35945282 1784.53087604 702.55287173 1786.32992715 700.76147461 1788.18530273 C697.59031431 1791.39965004 694.30564708 1794.40281236 690.88256836 1797.34545898 C688.53656402 1799.38039092 686.24411011 1801.4682124 683.94897461 1803.56030273 C679.6783731 1807.41552659 675.27373792 1811.06112789 670.80053711 1814.67749023 C667.2908885 1817.57362701 663.87142869 1820.56226099 660.44897461 1823.56030273 C654.01903716 1829.17169276 647.41965058 1834.50289464 640.6628418 1839.71362305 C638.6179497 1841.29639264 636.58363141 1842.89209798 634.55053711 1844.48999023 C603.36351458 1868.96261407 570.734009 1891.63696772 536.71850586 1912.01049805 C534.85253991 1913.13063629 532.99356552 1914.26146422 531.13647461 1915.39624023 C492.51820941 1938.91731 452.2233994 1959.25166776 410.79797363 1977.29663086 C408.94864223 1978.10362796 407.10151316 1978.91566728 405.25463867 1979.72827148 C366.5929952 1996.72083131 326.19754428 2011.68364218 285.34985352 2022.49438477 C282.36481692 2023.29118287 279.39447618 2024.13343134 276.42382812 2024.98193359 C240.01910507 2035.31659973 203.36651912 2043.17796026 166.01319885 2049.16035461 C161.76921064 2049.84445934 157.53666161 2050.57721774 153.30671692 2051.34320068 C144.73653613 2052.89320138 136.16158225 2054.15205035 127.51147461 2055.18530273 C126.82192688 2055.26834656 126.13237915 2055.35139038 125.42193604 2055.43695068 C114.01309928 2056.80143372 102.58894045 2057.88648892 91.13647461 2058.81030273 C90.44082397 2058.86669922 89.74517334 2058.9230957 89.02844238 2058.98120117 C84.5463941 2059.34012608 80.06263417 2059.6678664 75.57730103 2059.98291016 C73.55166618 2060.1285063 71.52645968 2060.28010734 69.5015564 2060.43554688 C49.19719954 2061.98952578 29.02066573 2062.51642374 8.66166306 2062.44325256 C6.27949781 2062.43515148 3.89734215 2062.43021659 1.51516724 2062.42590332 C-53.68816854 2062.31118079 -107.64929732 2058.37997098 -162.23852539 2050.18530273 C-163.31363373 2050.02544891 -163.31363373 2050.02544891 -164.41046143 2049.86236572 C-192.2802853 2045.71573626 -219.66647915 2039.35498753 -247.03149414 2032.71459961 C-249.23310684 2032.18660223 -251.43789579 2031.67517511 -253.64477539 2031.16967773 C-263.93341793 2028.81006829 -274.09873376 2026.11892198 -284.23852539 2023.18530273 C-285.3479248 2022.86505127 -285.3479248 2022.86505127 -286.47973633 2022.53833008 C-292.41786612 2020.81356743 -298.33145607 2019.01338116 -304.23852539 2017.18530273 C-305.32697754 2016.84934082 -306.41542969 2016.51337891 -307.53686523 2016.16723633 C-391.98706064 1989.93516483 -473.77963787 1952.53648922 -603.23852539 1868.18530273 C-604.35130859 1867.37899414 -604.35130859 1867.37899414 -605.48657227 1866.55639648 C-626.84192391 1851.04771266 -647.55245349 1834.71946666 -667.61450195 1817.57104492 C-669.3056676 1816.12801182 -671.00227158 1814.69155456 -672.69946289 1813.25561523 C-679.18333511 1807.75382205 -685.5345078 1802.14123992 -691.75488281 1796.34277344 C-694.6424699 1793.65134789 -697.55770081 1791.00851158 -700.55102539 1788.43530273 C-703.86707307 1785.57112738 -706.94560635 1782.52439746 -709.98852539 1779.37280273 C-711.83685697 1777.5758137 -713.71298312 1775.91475045 -715.67211914 1774.24389648 C-721.22398397 1769.41959718 -726.37735096 1764.19595359 -731.56591797 1758.98828125 C-733.29747239 1757.25136673 -735.03430898 1755.51986384 -736.77172852 1753.78881836 C-741.95817582 1748.60515712 -747.09011666 1743.42893142 -751.8203125 1737.81787109 C-753.38247986 1736.0195903 -755.03815036 1734.35277845 -756.73852539 1732.68530273 C-759.75266121 1729.71794951 -762.53769872 1726.61184981 -765.29711914 1723.40795898 C-767.526566 1720.85553391 -769.81853921 1718.3664276 -772.11352539 1715.87280273 C-776.16373831 1711.43279489 -779.99386661 1706.86595992 -783.76586914 1702.18920898 C-786.64736172 1698.68862795 -789.62597101 1695.28272948 -792.61352539 1691.87280273 C-798.22497182 1685.44291897 -803.55612078 1678.84347417 -808.7668457 1672.08666992 C-810.34961529 1670.04177782 -811.94532064 1668.00745954 -813.54321289 1665.97436523 C-847.35625467 1622.88425349 -877.6444409 1576.8763698 -903.83520508 1528.76098633 C-904.83215416 1526.93116503 -905.83323818 1525.10359392 -906.8371582 1523.27758789 C-923.26119528 1493.36869904 -938.16922199 1462.7076441 -951.23852539 1431.18530273 C-951.98344238 1429.39213623 -951.98344238 1429.39213623 -952.7434082 1427.56274414 C-968.92051958 1388.39185034 -983.23938344 1348.12856673 -994.23852539 1307.18530273 C-994.42898438 1306.48679199 -994.61944336 1305.78828125 -994.81567383 1305.06860352 C-996.06638937 1300.47516363 -997.26855841 1295.87052131 -998.44897461 1291.25854492 C-999.03452355 1288.97935812 -999.62554286 1286.70157522 -1000.21948242 1284.42456055 C-1012.57351631 1237.047921 -1020.74085121 1188.82607256 -1026.23852539 1140.18530273 C-1026.37742187 1139.01660645 -1026.51631836 1137.84791016 -1026.65942383 1136.64379883 C-1033.79939154 1076.27327186 -1034.28699314 1012.77027237 -1029.23852539 952.18530273 C-1029.17536133 951.41311401 -1029.11219727 950.64092529 -1029.04711914 949.84533691 C-1024.83408695 898.77522912 -1016.97622287 848.0584546 -1005.23852539 798.18530273 C-1004.95884918 796.99502472 -1004.95884918 796.99502472 -1004.67352295 795.78070068 C-999.36323827 773.2169302 -993.93560811 750.74311051 -986.42993164 728.79077148 C-985.43672138 725.78508927 -984.53048677 722.77308167 -983.67285156 719.7265625 C-965.10825931 654.04955674 -935.55150502 589.52930387 -902.23852539 530.18530273 C-901.32997803 528.56156738 -901.32997803 528.56156738 -900.40307617 526.9050293 C-887.51252335 503.92438572 -873.64730979 481.68185008 -859.05102539 459.74780273 C-858.5533667 458.99934082 -858.05570801 458.25087891 -857.54296875 457.47973633 C-847.79951697 442.84605334 -837.85468102 428.35953691 -827.11352539 414.43530273 C-826.43249756 413.5475415 -825.75146973 412.65978027 -825.04980469 411.74511719 C-823.71185399 410.00166915 -822.37264732 408.25918402 -821.03198242 406.51782227 C-819.49959847 404.52484701 -817.97398973 402.52709826 -816.45336914 400.52514648 C-807.67227651 389.00263957 -798.51660691 377.77997617 -789.11279297 366.76074219 C-786.34263201 363.51117871 -783.65098453 360.2108112 -780.98852539 356.87280273 C-776.49480255 351.34081902 -771.63993262 346.17835434 -766.72973633 341.01806641 C-763.03066912 337.12738085 -759.44318461 333.16600534 -755.9230957 329.11279297 C-746.36204168 318.17300724 -736.05886679 307.90242987 -725.80102539 297.62280273 C-725.23926605 297.0584552 -724.67750671 296.49410767 -724.09872437 295.91265869 C-718.51366894 290.30731696 -712.94026197 284.72994469 -706.88867188 279.62109375 C-705.08540838 278.05207575 -703.41176583 276.39159546 -701.73852539 274.68530273 C-698.77117216 271.67116691 -695.66507247 268.88612941 -692.46118164 266.12670898 C-689.90875656 263.89726212 -687.41965025 261.60528892 -684.92602539 259.31030273 C-680.48601755 255.26008982 -675.91918258 251.42996152 -671.24243164 247.65795898 C-667.74185061 244.77646641 -664.33595214 241.79785712 -660.92602539 238.81030273 C-654.49614163 233.1988563 -647.89669683 227.86770734 -641.13989258 222.65698242 C-639.09500048 221.07421283 -637.06068219 219.47850749 -635.02758789 217.88061523 C-609.68483069 197.99401774 -583.38277772 179.52974191 -556.23852539 162.18530273 C-555.27333984 161.56800293 -554.3081543 160.95070313 -553.3137207 160.31469727 C-483.28540368 115.67832726 -407.98092201 80.24772262 -329.48852539 53.31030273 C-328.30750748 52.90367401 -328.30750748 52.90367401 -327.10263062 52.48883057 C-316.86239104 48.97129842 -306.57411072 45.72320893 -296.16595459 42.73950195 C-293.29963233 41.91534013 -290.43952381 41.07017048 -287.57836914 40.22827148 C-248.32020665 28.80071399 -208.57581181 19.83217108 -168.23852539 13.18530273 C-167.24070038 13.01964813 -167.24070038 13.01964813 -166.22271729 12.85064697 C-111.07700723 3.7069212 -55.85589255 -0.0072816 0 0 Z " fill="#FEFEFE" transform="translate(1600.238525390625,568.814697265625)"/>
<path d="M0 0 C1.31098339 -0.00265183 2.62196678 -0.00530365 3.97267693 -0.00803584 C7.6168979 -0.01525373 11.26109824 -0.01626513 14.90532538 -0.01625861 C18.86808336 -0.01732976 22.83083224 -0.02412262 26.79358518 -0.03016531 C34.65558945 -0.04123045 42.51758926 -0.04688693 50.37959995 -0.05087419 C59.79574763 -0.05588673 69.21188667 -0.06661466 78.62802925 -0.07735593 C101.38592508 -0.10297481 124.14382426 -0.11801865 146.90173036 -0.13086639 C154.43880326 -0.13512162 161.97587592 -0.13968735 169.51294851 -0.14444971 C209.58853024 -0.16970761 249.66411238 -0.19175558 289.73970032 -0.20417786 C299.02299183 -0.20709917 308.30628333 -0.2100667 317.58957481 -0.21308327 C319.31956707 -0.21363963 319.31956707 -0.21363963 321.08450867 -0.21420723 C358.48728373 -0.22636569 395.89001177 -0.25731583 433.29276474 -0.29900479 C471.74438473 -0.34178469 510.19597987 -0.36841776 548.6476243 -0.37365257 C554.0775581 -0.37439302 559.50749186 -0.3753037 564.93742561 -0.37631035 C566.54041032 -0.37659627 566.54041032 -0.37659627 568.17577855 -0.37688797 C585.37755569 -0.38040224 602.57927392 -0.40070307 619.78102942 -0.42710699 C637.06857877 -0.45324269 654.35606001 -0.46098276 671.64362629 -0.4500057 C681.91455092 -0.44402649 692.18524466 -0.4519533 702.45613437 -0.47983653 C709.31878128 -0.49708884 716.18127074 -0.49613916 723.04392101 -0.48046885 C726.95289751 -0.47205852 730.86143338 -0.47146919 734.77036901 -0.4930803 C738.9869855 -0.51620476 743.20258487 -0.50040877 747.41921997 -0.48101807 C748.62483123 -0.49386729 749.83044249 -0.50671651 751.07258743 -0.5199551 C763.1817434 -0.3975446 774.4311542 3.4285747 783.08713341 12.13701439 C787.65620151 17.61989611 790.1823587 23.31271362 792.08713341 30.13701439 C792.41713341 31.12701439 792.74713341 32.11701439 793.08713341 33.13701439 C793.18064134 35.69621966 793.21748412 38.22773834 793.20738792 40.78684044 C793.20824235 41.57344577 793.20909677 42.36005109 793.20997709 43.17049295 C793.21162833 45.81454842 793.20611631 48.4585409 793.2006588 51.10259056 C793.20037682 52.99463461 793.20053486 54.88667877 793.2011013 56.77872276 C793.20138888 61.92301869 793.19549857 67.06729142 793.18852735 72.21158195 C793.18228718 77.58478094 793.18168948 82.95798042 793.18050194 88.33118248 C793.17739058 98.50963672 793.16917982 108.68808025 793.15915245 118.86652976 C793.14798525 130.45283452 793.14247933 142.03913979 793.13745701 153.62544858 C793.12699706 177.46264313 793.10940138 201.29982816 793.08713341 225.13701439 C793.93831749 225.12130394 794.78950157 225.10559349 795.66647911 225.08940697 C798.87771848 225.03774288 802.08874338 225.00040722 805.30026817 224.97221947 C806.68022267 224.95729497 808.06013112 224.93694778 809.43991661 224.91069603 C818.17651862 224.74884834 825.81402183 225.24718608 834.08713341 228.13701439 C834.97159142 228.43776878 835.85604942 228.73852318 836.76730919 229.04839134 C843.29849504 231.34749191 848.61834371 234.94580749 854.08713341 239.13701439 C854.92889122 239.77896751 855.77064903 240.42092064 856.63791466 241.08232689 C868.98085492 251.43701042 875.91071239 267.36461421 877.36842263 283.19097078 C877.47739974 286.27645393 877.50176916 289.34950317 877.48827171 292.43686485 C877.49506838 293.60316817 877.50186505 294.76947148 877.50886768 295.97111732 C877.52443216 299.16794407 877.52684701 302.36444769 877.52328455 305.56129968 C877.52266697 309.02501472 877.5392812 312.48865702 877.55345726 315.95233727 C877.57825895 322.72312138 877.58661639 329.4938271 877.58829439 336.26465287 C877.58972543 341.77430619 877.59591724 347.28393389 877.60539627 352.7935791 C877.6317833 368.45213737 877.64565944 384.11063423 877.64340485 399.76921489 C877.64328498 400.61141636 877.64316511 401.45361783 877.64304161 402.32134056 C877.64291897 403.16458328 877.64279633 404.007826 877.64266997 404.87662152 C877.64145132 418.53397854 877.67014974 432.19108715 877.71245671 445.84837236 C877.75566417 459.90850275 877.77626093 473.96851228 877.77367538 488.02871066 C877.7726835 495.90764329 877.78074651 503.78631543 877.81320953 511.66518784 C877.84067826 518.3743145 877.8469259 525.08306257 877.82668126 531.79222145 C877.81696141 535.20754496 877.81976539 538.62155903 877.84274101 542.03690529 C877.99046561 565.53174174 874.77685048 584.26924216 858.24338341 602.07451439 C843.80331288 615.88675577 826.15338811 619.68155746 806.83713341 619.32451439 C805.39834552 619.30942221 803.95954211 619.29574191 802.52072716 619.28349876 C799.04253255 619.25089357 795.56493716 619.19936927 792.08713341 619.13701439 C792.09601585 620.07867455 792.1048983 621.0203347 792.11404991 621.99053001 C792.19568935 630.93289265 792.25536143 639.87517814 792.2943821 648.81783104 C792.31511851 653.41364323 792.34317578 658.00915085 792.38889122 662.60478783 C792.4328535 667.05281563 792.45637488 671.50055341 792.46664238 675.94878197 C792.47394457 677.63258482 792.48819917 679.31637464 792.51005363 681.0000515 C792.6515857 692.37227953 791.39659001 702.21903501 788.08713341 713.13701439 C787.8426194 713.95940102 787.59810539 714.78178764 787.34618187 715.62909508 C778.97443621 742.11558842 760.12730465 763.10838211 735.90353966 776.28935814 C731.64200415 778.41505666 727.27945766 780.23766768 722.83713341 781.94951439 C722.13628624 782.22762962 721.43543907 782.50574486 720.71335411 782.79228783 C703.55765958 789.03210407 685.3878218 788.5667593 667.4113369 788.51796532 C664.62367059 788.5197646 661.83601834 788.52607202 659.0483585 788.53214705 C653.01282065 788.54292144 646.97736349 788.54269108 640.94182205 788.53500557 C631.96647619 788.52360791 622.99119776 788.52948525 614.01585227 788.53863049 C597.98158092 788.55439137 581.94734552 788.55307311 565.91307078 788.54439375 C551.88152444 788.5368361 537.84999126 788.5348821 523.8184433 788.53846169 C522.42032383 788.53880542 522.42032383 788.53880542 520.99395953 788.5391561 C517.21000485 788.54009017 513.42605017 788.54104537 509.6420955 788.54203539 C474.17354865 788.55120452 438.70502464 788.54290435 403.23648131 788.5267447 C371.74829126 788.51250758 340.2601376 788.51378366 308.77194786 788.52812767 C273.36523174 788.54420294 237.95853579 788.55055532 202.55181652 788.54129088 C198.7752136 788.54032878 194.99861068 788.53939025 191.22200775 788.53846169 C190.29216437 788.53822445 189.362321 788.53798722 188.40430055 788.5377428 C174.38340068 788.5343352 160.36251543 788.5383122 146.34161758 788.54590034 C130.39466625 788.55448803 114.44775638 788.55231244 98.5008102 788.53605811 C89.58379521 788.52726821 80.66687009 788.52664674 71.74985749 788.53799664 C65.78495848 788.54474957 59.82013115 788.5404908 53.85524271 788.52748233 C50.4625384 788.52038305 47.07015694 788.51949966 43.67743628 788.52870028 C26.41531861 788.57190928 9.70568922 788.34222945 -6.60036659 781.94951439 C-7.78179237 781.49777855 -7.78179237 781.49777855 -8.98708534 781.03691673 C-20.9651203 776.30452346 -31.34632571 769.80884282 -40.91286659 761.13701439 C-41.39997108 760.6990554 -41.88707558 760.26109642 -42.38894081 759.80986595 C-58.13200232 745.47776306 -68.87821993 726.84826227 -73.91286659 706.13701439 C-74.08135329 705.47720038 -74.24983999 704.81738638 -74.42343235 704.13757801 C-76.5982413 694.24489621 -76.16926791 684.21652308 -76.12404823 674.14702415 C-76.12188858 672.00047468 -76.12063976 669.85392414 -76.12022018 667.70737362 C-76.1173737 663.05107887 -76.10816737 658.39485487 -76.09407043 653.7385807 C-76.07117104 646.16166837 -76.06212366 638.58477466 -76.05478859 631.00783348 C-76.04373024 620.72162867 -76.0277694 610.43544548 -76.00796127 600.14925399 C-75.97477976 582.78554619 -75.96463478 565.42187904 -75.96247339 548.05814232 C-75.96198693 544.35938206 -75.96129412 540.66062184 -75.9606266 536.96186161 C-75.95983478 532.47219831 -75.95906329 527.98253501 -75.95835543 523.4928717 C-75.95562694 506.57639977 -75.95015879 489.65992974 -75.94167519 472.7434597 C-75.94129667 471.9706916 -75.94091815 471.1979235 -75.94052815 470.40173818 C-75.92804638 445.33113977 -75.88816609 420.26066336 -75.83624189 395.1901188 C-75.78301127 369.39847327 -75.76300731 343.60699214 -75.78263681 317.81529498 C-75.78538116 314.17252481 -75.78771724 310.52975448 -75.7897892 306.88698387 C-75.79020512 306.17009878 -75.79062104 305.45321369 -75.79104956 304.7146048 C-75.79670608 293.18451365 -75.7669119 281.65477412 -75.72342601 270.12477478 C-75.68039547 258.53722615 -75.67413306 246.95019826 -75.703049 235.36259294 C-75.71758537 229.08646664 -75.71578052 222.81145101 -75.67035294 216.53544807 C-75.62909095 210.78847727 -75.63398285 205.04345088 -75.6753844 199.29649818 C-75.68222106 197.21924 -75.67218213 195.14184231 -75.6434375 193.06477177 C-75.24237879 179.67085477 -75.24237879 179.67085477 -81.80718422 168.56220055 C-83.48814264 167.06332414 -85.18770763 165.58479828 -86.91286659 164.13701439 C-88.8091616 161.83856466 -90.47465866 159.44467872 -92.10036659 156.94951439 C-92.50980507 156.3271389 -92.91924355 155.70476341 -93.34108925 155.06352806 C-104.58272572 137.42229854 -110.28803931 117.48630852 -110.28347206 96.68022728 C-110.28782552 94.47036485 -110.32419821 92.26253858 -110.36208534 90.05303001 C-110.46709053 76.98672053 -107.9702037 65.14712018 -102.16286659 53.32451439 C-101.81852577 52.61222679 -101.47418495 51.89993919 -101.11940956 51.16606712 C-98.11035792 45.15138477 -94.52167895 40.05082168 -89.91286659 35.13701439 C-89.12911659 34.28623314 -88.34536659 33.43545189 -87.53786659 32.55888939 C-69.44165063 13.67096398 -45.17244205 5.34651688 -19.91286659 1.13701439 C-18.97452024 0.96656211 -18.03617389 0.79610984 -17.0693928 0.62049234 C-11.41037095 -0.17465383 -5.70246732 -0.00560016 0 0 Z " fill="#2196F2" transform="translate(1244.9128665924072,1205.862985610962)"/>
<path d="M0 0 C1.95355027 -0.00346066 3.90709859 -0.00822795 5.86064285 -0.01418173 C11.20529192 -0.02666516 16.54977956 -0.02053342 21.89442909 -0.01122308 C27.66749959 -0.00442209 33.44054276 -0.01491899 39.21360779 -0.02316284 C50.5134716 -0.03649089 61.81327558 -0.03362662 73.11314172 -0.02492492 C82.29754927 -0.01814548 91.48194007 -0.01723278 100.66634941 -0.02049637 C101.97429345 -0.02095607 103.28223748 -0.02141577 104.62981619 -0.0218894 C107.28699574 -0.02284859 109.94417529 -0.02382123 112.60135483 -0.02480717 C136.79773074 -0.03341559 160.99407644 -0.02450474 185.19044719 -0.00877938 C207.26564904 0.00545833 229.34079897 0.00418134 251.41600037 -0.01016235 C276.23552172 -0.02623542 301.05501396 -0.03253597 325.87453979 -0.02332556 C328.52155331 -0.02236993 331.16856684 -0.02142682 333.81558037 -0.02049637 C335.11791684 -0.02003354 336.42025331 -0.01957072 337.76205452 -0.01909386 C346.93475612 -0.01650477 356.10743928 -0.02087321 365.28013802 -0.02793503 C376.45945264 -0.03635263 387.63870408 -0.03406428 398.81801147 -0.0180928 C404.52061833 -0.01021391 410.22311988 -0.00711211 415.92572594 -0.01704025 C421.14840667 -0.02599529 426.37088469 -0.0210408 431.5935471 -0.0051076 C433.48031443 -0.00176327 435.36709896 -0.003446 437.25385518 -0.01073496 C446.83183099 -0.04489144 455.55649935 0.04736626 464.67405701 3.38095093 C465.55398852 3.68145595 466.43392004 3.98196098 467.34051615 4.29157221 C473.87973977 6.58238671 479.20209828 10.18731533 484.67405701 14.38095093 C485.51581482 15.02290405 486.35757263 15.66485718 487.22483826 16.32626343 C499.56777851 26.68094696 506.49763599 42.60855075 507.95534623 58.43490732 C508.06432334 61.52039047 508.08869276 64.59343971 508.07519531 67.68080139 C508.08199198 68.8471047 508.08878865 70.01340802 508.09579128 71.21505386 C508.11135575 74.4118806 508.11377061 77.60838422 508.11020815 80.80523622 C508.10959057 84.26895126 508.1262048 87.73259356 508.14038086 91.1962738 C508.16518255 97.96705792 508.17353999 104.73776364 508.17521799 111.50858941 C508.17664903 117.01824273 508.18284084 122.52787043 508.19231987 128.03751564 C508.2187069 143.69607391 508.23258304 159.35457077 508.23032845 175.01315143 C508.23020858 175.8553529 508.23008871 176.69755437 508.22996521 177.5652771 C508.22984257 178.40851982 508.22971993 179.25176253 508.22959357 180.12055806 C508.22837492 193.77791508 508.25707334 207.43502369 508.29938031 221.0923089 C508.34258777 235.15243929 508.36318453 249.21244882 508.36059898 263.2726472 C508.3596071 271.15157983 508.36767011 279.03025196 508.40013313 286.90912437 C508.42760186 293.61825104 508.4338495 300.32699911 508.41360486 307.03615799 C508.40388501 310.4514815 508.40668899 313.86549557 508.42966461 317.28084183 C508.57738921 340.77567828 505.36377408 359.5131787 488.83030701 377.31845093 C473.37285704 392.10383785 454.87003229 394.84135135 434.45095825 394.76190186 C432.50850834 394.76536258 430.56606039 394.77012992 428.62361652 394.77608359 C423.30949274 394.78856651 417.99553133 394.78243547 412.68140709 394.77312493 C406.94098017 394.76632356 401.20058073 394.77682117 395.4601593 394.7850647 C384.22312234 394.79839335 372.98614555 394.79552791 361.74910625 394.78682677 C352.61336005 394.78004622 343.4776307 394.77913512 334.34188271 394.78239822 C333.04064428 394.78285792 331.73940586 394.78331762 330.39873597 394.78379125 C327.75509335 394.78475045 325.11145072 394.78572309 322.46780811 394.78670903 C298.39270322 394.79501694 274.31762993 394.78640644 250.24253018 394.77068123 C228.28812899 394.75645019 206.33378001 394.75771481 184.37937927 394.77206421 C159.69019846 394.78814727 135.00104771 394.7944317 110.31186229 394.78522742 C107.6771344 394.7842718 105.0424065 394.78332869 102.4076786 394.78239822 C101.1114332 394.7819354 99.8151878 394.78147257 98.47966224 394.78099572 C89.3599358 394.77840914 80.24022794 394.78276977 71.12050438 394.78983688 C59.99912855 394.79826584 48.87781622 394.79594259 37.75644764 394.77999465 C32.08574928 394.77213003 26.41515664 394.76898941 20.74445915 394.77894211 C15.54624131 394.78792727 10.3482265 394.78289345 5.1500269 394.76700945 C3.27664726 394.76367772 1.40325022 394.76531917 -0.47011808 394.77263682 C-22.07182207 394.8504966 -39.48950672 391.51795046 -55.70484924 376.22470093 C-58.32594299 373.38095093 -58.32594299 373.38095093 -63.32594299 366.38095093 C-31.64594299 366.38095093 0.03405701 366.38095093 32.67405701 366.38095093 C32.61262452 331.93395934 32.54054131 297.487067 32.44507072 263.04015736 C32.43380308 258.96983625 32.42266454 254.8995148 32.41160583 250.82919312 C32.40940215 250.01889362 32.40719847 249.20859413 32.40492801 248.37374011 C32.36959266 235.26774119 32.34470731 222.16174234 32.32370999 209.0557135 C32.30191792 195.59942988 32.26883525 182.14320786 32.22535545 168.68697667 C32.19889731 160.38930177 32.181159 152.09170359 32.17471097 143.79398862 C32.16943917 138.09753779 32.15316235 132.40118335 32.12839135 126.70478424 C32.11443739 123.42230875 32.10681866 120.14003844 32.10904884 116.85752869 C32.11070782 113.28821161 32.0939482 109.71942157 32.07278442 106.150177 C32.077632 105.12679316 32.08247958 104.10340932 32.08747405 103.04901385 C31.95527354 89.46937338 28.13982104 78.84144789 19.23655701 68.56845093 C18.39093201 67.84657593 17.54530701 67.12470093 16.67405701 66.38095093 C16.13651794 65.90270874 15.59897888 65.42446655 15.04515076 64.93173218 C6.80751896 58.10430039 -4.01274093 54.2608112 -14.69190979 54.2515564 C-15.74037582 54.24840424 -16.78884186 54.24525208 -17.86907959 54.24200439 C-18.9930867 54.24402863 -20.11709381 54.24605286 -21.27516174 54.24813843 C-22.4429567 54.2471817 -23.61075165 54.24622498 -24.81393433 54.24523926 C-27.28432774 54.24455923 -29.75472294 54.24640118 -32.22511292 54.25057983 C-35.9820718 54.25590645 -39.73890982 54.25064126 -43.49586487 54.24423218 C-45.90146409 54.24489346 -48.30706323 54.24617566 -50.71266174 54.24813843 C-51.8265477 54.2461142 -52.94043365 54.24408997 -54.08807373 54.24200439 C-60.56143655 54.26117801 -66.8995984 54.5921285 -73.32594299 55.38095093 C-71.83049147 38.93098414 -63.41181467 25.66333597 -51.46266174 14.66610718 C-36.05535744 2.22809064 -19.09250944 -0.07385373 0 0 Z " fill="#1976D2" transform="translate(1614.325942993164,1430.6190490722656)"/>
<path d="M0 0 C1.31098339 -0.00265183 2.62196678 -0.00530365 3.97267693 -0.00803584 C7.6168979 -0.01525373 11.26109824 -0.01626513 14.90532538 -0.01625861 C18.86808336 -0.01732976 22.83083224 -0.02412262 26.79358518 -0.03016531 C34.65558945 -0.04123045 42.51758926 -0.04688693 50.37959995 -0.05087419 C59.79574763 -0.05588673 69.21188667 -0.06661466 78.62802925 -0.07735593 C101.38592508 -0.10297481 124.14382426 -0.11801865 146.90173036 -0.13086639 C154.43880326 -0.13512162 161.97587592 -0.13968735 169.51294851 -0.14444971 C209.58853024 -0.16970761 249.66411238 -0.19175558 289.73970032 -0.20417786 C299.02299183 -0.20709917 308.30628333 -0.2100667 317.58957481 -0.21308327 C319.31956707 -0.21363963 319.31956707 -0.21363963 321.08450867 -0.21420723 C358.48728373 -0.22636569 395.89001177 -0.25731583 433.29276474 -0.29900479 C471.74438473 -0.34178469 510.19597987 -0.36841776 548.6476243 -0.37365257 C554.0775581 -0.37439302 559.50749186 -0.3753037 564.93742561 -0.37631035 C566.54041032 -0.37659627 566.54041032 -0.37659627 568.17577855 -0.37688797 C585.37755569 -0.38040224 602.57927392 -0.40070307 619.78102942 -0.42710699 C637.06857877 -0.45324269 654.35606001 -0.46098276 671.64362629 -0.4500057 C681.91455092 -0.44402649 692.18524466 -0.4519533 702.45613437 -0.47983653 C709.31878128 -0.49708884 716.18127074 -0.49613916 723.04392101 -0.48046885 C726.95289751 -0.47205852 730.86143338 -0.47146919 734.77036901 -0.4930803 C738.9869855 -0.51620476 743.20258487 -0.50040877 747.41921997 -0.48101807 C748.62483123 -0.49386729 749.83044249 -0.50671651 751.07258743 -0.5199551 C763.1817434 -0.3975446 774.4311542 3.4285747 783.08713341 12.13701439 C787.65620151 17.61989611 790.1823587 23.31271362 792.08713341 30.13701439 C792.41713341 31.12701439 792.74713341 32.11701439 793.08713341 33.13701439 C793.18064134 35.69621966 793.21748412 38.22773834 793.20738792 40.78684044 C793.20824235 41.57344577 793.20909677 42.36005109 793.20997709 43.17049295 C793.21162833 45.81454842 793.20611631 48.4585409 793.2006588 51.10259056 C793.20037682 52.99463461 793.20053486 54.88667877 793.2011013 56.77872276 C793.20138888 61.92301869 793.19549857 67.06729142 793.18852735 72.21158195 C793.18228718 77.58478094 793.18168948 82.95798042 793.18050194 88.33118248 C793.17739058 98.50963672 793.16917982 108.68808025 793.15915245 118.86652976 C793.14798525 130.45283452 793.14247933 142.03913979 793.13745701 153.62544858 C793.12699706 177.46264313 793.10940138 201.29982816 793.08713341 225.13701439 C792.75713341 225.13701439 792.42713341 225.13701439 792.08713341 225.13701439 C792.08713341 219.19701439 792.08713341 213.25701439 792.08713341 207.13701439 C790.61875241 207.13739411 789.15037142 207.13777383 787.63749403 207.13816506 C722.67702795 207.15489626 657.71656164 207.17031486 592.75609398 207.17935753 C591.76688601 207.17949559 590.77767804 207.17963364 589.75849407 207.17977588 C568.24124458 207.18277136 546.72399507 207.18554118 525.20674553 207.18807972 C514.64905255 207.18932665 504.09135958 207.19062326 493.53366661 207.19194603 C492.48325557 207.19207679 491.43284452 207.19220755 490.35060284 207.19234227 C456.52984453 207.19657555 422.70908794 207.20406535 388.88833066 207.21331161 C354.02545058 207.22282507 319.16257144 207.22891829 284.29969009 207.23092938 C279.33375284 207.23121738 274.3678156 207.23154301 269.40187836 207.23189163 C268.42486355 207.23195906 267.44784875 207.23202648 266.44122743 207.23209594 C252.84917043 207.23311774 239.25711575 207.23644918 225.66505973 207.24165525 C181.04873122 207.25865123 136.43260305 207.25211952 91.81635284 207.15862317 C91.09397666 207.15711005 90.37160048 207.15559693 89.62733412 207.15403795 C88.9115651 207.15253707 88.19579609 207.15103618 87.45833711 207.14948982 C82.62277375 207.13956951 77.78721083 207.13191141 72.95164156 207.12556028 C58.8506304 207.10632878 44.7501559 207.06558534 30.64940083 206.97680366 C26.70504886 206.95265854 22.76091646 206.93905529 18.81649292 206.93616307 C-20.412309 206.89418059 -51.39988859 199.89487592 -80.38161659 171.73857689 C-99.55928525 151.41294919 -110.28957921 124.50134511 -110.28347206 96.68022728 C-110.28782552 94.47036485 -110.32419821 92.26253858 -110.36208534 90.05303001 C-110.46709053 76.98672053 -107.9702037 65.14712018 -102.16286659 53.32451439 C-101.81852577 52.61222679 -101.47418495 51.89993919 -101.11940956 51.16606712 C-98.11035792 45.15138477 -94.52167895 40.05082168 -89.91286659 35.13701439 C-89.12911659 34.28623314 -88.34536659 33.43545189 -87.53786659 32.55888939 C-69.44165063 13.67096398 -45.17244205 5.34651688 -19.91286659 1.13701439 C-18.97452024 0.96656211 -18.03617389 0.79610984 -17.0693928 0.62049234 C-11.41037095 -0.17465383 -5.70246732 -0.00560016 0 0 Z " fill="#64B5F6" transform="translate(1244.9128665924072,1205.862985610962)"/>
<path d="M0 0 C1.77150421 -0.00642769 1.77150421 -0.00642769 3.57879639 -0.01298523 C6.06993979 -0.0187098 8.56109991 -0.01924266 11.05224609 -0.01489258 C14.83330318 -0.01174048 18.61357114 -0.03518948 22.39453125 -0.06054688 C24.82551986 -0.06282106 27.25651054 -0.06352281 29.6875 -0.0625 C30.803526 -0.07170975 31.919552 -0.08091949 33.06939697 -0.09040833 C47.4808288 -0.00685968 60.82726765 3.78705652 71.39038086 13.9375 C79.40169438 22.46973841 83.50106786 33.45546499 87.859375 44.11328125 C88.54280674 45.76274067 89.22715701 47.41181977 89.91235352 49.06054688 C91.37820477 52.59336608 92.83742003 56.12882532 94.29150391 59.66650391 C96.70268041 65.53231633 99.13015002 71.39131975 101.55859375 77.25 C104.75746491 84.97272334 107.95164617 92.69735609 111.13671875 100.42578125 C111.50145294 101.31025436 111.86618713 102.19472748 112.24197388 103.10600281 C114.22060851 107.9094983 116.18719435 112.71764414 118.14111328 117.53125 C118.5548671 118.54880371 118.96862091 119.56635742 119.39491272 120.61474609 C120.19304033 122.57902344 120.98904952 124.54416318 121.78269958 126.51025391 C122.13872757 127.38601074 122.49475555 128.26176758 122.86157227 129.1640625 C123.17570572 129.94048096 123.48983917 130.71689941 123.81349182 131.5168457 C124.4751943 133.28582016 124.4751943 133.28582016 125.609375 134.30078125 C127.66980758 129.33608565 129.72976759 124.37119426 131.78930664 119.40612793 C132.54544112 117.58327173 133.30162616 115.7604365 134.05786133 113.93762207 C138.6003039 102.98765668 143.13467674 92.03443127 147.65234375 81.07421875 C148.06768875 80.06696747 148.48303375 79.05971619 148.91096497 78.02194214 C150.91671746 73.15774443 152.92114989 68.29301173 154.9230957 63.42724609 C156.76789144 58.94725191 158.62377208 54.47198695 160.48730469 49.99975586 C161.25427132 48.15493077 162.01778681 46.3086681 162.77832031 44.46118164 C163.94184802 41.63811368 165.11804191 38.82061198 166.296875 36.00390625 C166.64113525 35.16156433 166.98539551 34.31922241 167.34008789 33.45135498 C173.21457973 19.53403975 181.43852466 10.41612642 194.94921875 3.74609375 C203.18133277 0.49541906 211.01359174 -0.01721133 219.80859375 -0.03515625 C221.53756645 -0.04514145 221.53756645 -0.04514145 223.3014679 -0.05532837 C225.73115454 -0.06541155 228.16086863 -0.07014674 230.59057617 -0.06982422 C234.26854171 -0.07418516 237.94529405 -0.11051998 241.62304688 -0.1484375 C260.48111199 -0.23971991 275.86201023 1.41117161 290.609375 14.30078125 C296.36806081 21.36043262 300.75294183 28.30039546 302.609375 37.30078125 C302.78086058 37.90676391 302.95234615 38.51274658 303.12902826 39.13709235 C303.6548119 41.50544865 303.73353958 43.61531362 303.73242283 46.04089737 C303.73441388 46.99634516 303.73640493 47.95179295 303.73845631 48.9361937 C303.73554347 49.98288028 303.73263063 51.02956685 303.72962952 52.10797119 C303.73091115 53.7791871 303.73091115 53.7791871 303.73221868 55.48416495 C303.73387044 59.23067041 303.72835703 62.97713145 303.72290039 66.72363281 C303.72261843 69.40399273 303.72273236 72.08434989 303.7233429 74.76470947 C303.72386743 80.54214185 303.72072794 86.31956295 303.71510506 92.09699249 C303.70698059 100.45020159 303.70437386 108.80340523 303.70311707 117.15661785 C303.70092804 130.70890718 303.69427199 144.2611905 303.68481445 157.81347656 C303.67563648 170.97884084 303.66855753 184.14420348 303.66430664 197.30957031 C303.66391256 198.52668817 303.66391256 198.52668817 303.66351051 199.76839426 C303.66220548 203.83897909 303.66094177 207.90956394 303.65969861 211.98014879 C303.64933064 245.75369828 303.63089483 279.52723657 303.609375 313.30078125 C269.619375 313.30078125 235.629375 313.30078125 200.609375 313.30078125 C200.279375 263.47078125 199.949375 213.64078125 199.609375 162.30078125 C194.329375 174.51078125 189.049375 186.72078125 183.609375 199.30078125 C177.74451108 212.78477045 177.74451108 212.78477045 175.04150391 218.94995117 C174.31741895 220.60297191 173.59483651 222.2566514 172.87353516 223.91088867 C155.91977727 262.7906688 155.91977727 262.7906688 136.234375 270.67578125 C125.61017401 273.91337387 112.28973791 274.14754182 102.02734375 269.62890625 C97.59264563 267.19304622 93.55778176 264.46222034 89.609375 261.30078125 C88.98289062 260.82382813 88.35640625 260.346875 87.7109375 259.85546875 C81.20168775 254.22982756 78.10244814 245.96032442 74.609375 238.30078125 C74.14257324 237.28113281 73.67577148 236.26148438 73.19482422 235.2109375 C66.89145922 221.39070391 60.78457219 207.48341482 54.734375 193.55078125 C53.96830933 191.78806885 53.96830933 191.78806885 53.18676758 189.98974609 C49.21444457 180.80185886 45.42228667 171.56070959 41.609375 162.30078125 C41.279375 212.13078125 40.949375 261.96078125 40.609375 313.30078125 C9.919375 313.30078125 -20.770625 313.30078125 -52.390625 313.30078125 C-52.5009449 278.36127956 -52.59322992 243.4219475 -52.64595165 208.48232393 C-52.65220485 204.35320588 -52.65867649 200.2240882 -52.6652832 196.0949707 C-52.66659476 195.27297106 -52.66790631 194.45097142 -52.6692576 193.6040627 C-52.69098769 180.31114248 -52.73039592 167.01833087 -52.77638898 153.72547499 C-52.82322049 140.07599921 -52.85093452 126.42658013 -52.86106747 112.77702731 C-52.8679128 104.36100222 -52.88949775 95.94528417 -52.93020733 87.52935364 C-52.95672848 81.75068091 -52.96460491 75.97216588 -52.95813189 70.19343678 C-52.95494332 66.86398416 -52.96244717 63.53549545 -52.98665237 60.20606613 C-53.11784923 41.22352272 -52.20124235 27.69937306 -38.5859375 13.40625 C-27.5808105 2.92626391 -14.68468965 -0.01190594 0 0 Z " fill="#F5FAFE" transform="translate(1343.390625,1483.69921875)"/>
<path d="M0 0 C0.97330865 -0.00350607 1.9466173 -0.00701215 2.94942015 -0.01062447 C6.21839367 -0.01994544 9.48718931 -0.01501327 12.75617027 -0.01015663 C15.12058354 -0.01389254 17.48499558 -0.01849382 19.84940565 -0.02388728 C24.99413793 -0.03358001 30.13883567 -0.03703124 35.28357506 -0.03497505 C42.93428927 -0.03192478 50.58496185 -0.04024968 58.23566797 -0.0507243 C72.69591841 -0.07006868 87.15615467 -0.07569271 101.61641653 -0.07683842 C112.78461993 -0.07775751 123.95281777 -0.08187421 135.12101936 -0.08823967 C138.33582254 -0.09003477 141.55062572 -0.09181439 144.7654289 -0.09358943 C145.56464462 -0.09403152 146.36386034 -0.09447362 147.18729472 -0.09492911 C169.66915888 -0.10723822 192.15102111 -0.11513018 214.63288879 -0.11424255 C215.48056063 -0.1142114 216.32823247 -0.11418024 217.20159133 -0.11414814 C221.49793132 -0.11398192 225.79427131 -0.11378384 230.09061129 -0.11357872 C230.94387672 -0.11353883 231.79714214 -0.11349894 232.67626409 -0.11345784 C234.40177565 -0.11337697 236.12728721 -0.11329337 237.85279877 -0.11320706 C264.69360696 -0.11198179 291.53436459 -0.12698995 318.37515831 -0.15435219 C348.53252212 -0.18508278 378.68985272 -0.20228406 408.84723318 -0.20042574 C412.06392248 -0.20027648 415.28061179 -0.20017907 418.4973011 -0.20011711 C419.28932748 -0.2000938 420.08135385 -0.20007049 420.89738102 -0.20004648 C433.63595128 -0.19998497 446.37447761 -0.21274971 459.11303481 -0.22998164 C471.91975697 -0.24694724 484.72641497 -0.24890474 497.53314216 -0.235763 C504.4693675 -0.22902882 511.40544791 -0.22861052 518.34165764 -0.2464695 C524.69404107 -0.26217996 531.04613924 -0.2593568 537.39851563 -0.24190123 C539.69394772 -0.23882691 541.989401 -0.24247991 544.28480811 -0.25362138 C560.31935365 -0.32628193 574.5918936 -0.02848228 587.21060753 11.25726891 C596.80563794 21.51657065 599.7126269 31.13929393 599.49576378 44.90570641 C599.14688471 52.99479195 596.08878696 59.85465841 591.21060753 66.25726891 C590.65373253 67.08226891 590.09685753 67.90726891 589.52310753 68.75726891 C582.94379647 75.87003761 573.02278619 81.24614081 563.2600016 81.75751489 C561.48918202 81.77780661 559.71802851 81.77679312 557.9471941 81.75784016 C556.95909529 81.76335432 555.97099648 81.76886849 554.95295528 81.77454975 C551.65157356 81.78811361 548.35094881 81.77326394 545.04958153 81.75847435 C542.65497764 81.7623683 540.26037606 81.7680095 537.86577994 81.77524525 C532.66444561 81.78692404 527.46326593 81.78620643 522.2619381 81.77446556 C514.52736029 81.75705442 506.79291615 81.76259284 499.05833135 81.77263247 C485.24345992 81.7898132 471.4286679 81.78429084 457.61379811 81.76927528 C445.52476446 81.7562203 433.43575834 81.75102816 421.34671783 81.75359344 C420.14358641 81.75383407 420.14358641 81.75383407 418.91614931 81.75407955 C415.66017417 81.75474314 412.40419905 81.75544556 409.14822394 81.75620489 C378.60969654 81.76322773 348.07121763 81.74774142 317.53270258 81.72158143 C290.40278002 81.69846446 263.27291076 81.69307914 236.14298058 81.70331383 C229.19515262 81.70591585 222.24732467 81.70850087 215.29949665 81.71091175 C214.44412851 81.7112092 213.58876037 81.71150665 212.70747198 81.71181311 C190.03491742 81.71942812 167.36236724 81.71301576 144.68981463 81.70221573 C142.25021592 81.70106793 139.81061722 81.69992475 137.37101851 81.69878891 C135.75266831 81.69803366 134.13431811 81.69726801 132.51596792 81.6964919 C120.43402759 81.69083396 108.35210105 81.69216325 96.27016068 81.69672012 C82.53292197 81.70182769 68.79573488 81.69597596 55.05850904 81.67582583 C47.37071969 81.66483922 39.68303182 81.66204655 31.99523938 81.67111436 C26.25683056 81.67694723 20.51853437 81.66710667 14.78014881 81.65111471 C12.45729138 81.64706375 10.13441854 81.64808089 7.81156682 81.65463357 C4.65690109 81.66277223 1.5028088 81.65248493 -1.65182018 81.63758564 C-2.55583894 81.64432329 -3.4598577 81.65106094 -4.39127097 81.65800276 C-13.82043182 81.57174798 -21.13310611 78.6031781 -28.78939247 73.25726891 C-29.65564247 72.67976891 -30.52189247 72.10226891 -31.41439247 71.50726891 C-38.75206496 64.55578971 -43.5803547 55.24159632 -44.02767372 45.14789391 C-44.40374217 29.37165326 -44.40374217 29.37165326 -39.78939247 22.25726891 C-39.34208778 21.49156578 -38.8947831 20.72586266 -38.43392372 19.93695641 C-32.20393111 9.81530622 -23.29725453 3.87009151 -11.85594912 0.68172316 C-7.93138377 -0.12435127 -3.99194457 -0.01825727 0 0 Z " fill="#B2D9F9" transform="translate(1334.7893924713135,1330.7427310943604)"/>
<path d="M0 0 C1.0206958 0.44206787 1.0206958 0.44206787 2.06201172 0.89306641 C11.13034743 4.90650935 19.25469838 9.77063735 27 16 C27.680625 16.51691406 28.36125 17.03382812 29.0625 17.56640625 C44.76508074 30.19811939 57.07394974 52.12201956 59.61328125 72.171875 C60.15556519 77.8782497 60.22220869 83.58401527 60.25 89.3125 C60.2809375 90.8893457 60.2809375 90.8893457 60.3125 92.49804688 C60.3497871 100.0813106 59.16829756 106.74587712 57 114 C56.63519531 115.23492188 56.27039062 116.46984375 55.89453125 117.7421875 C47.75977157 141.294813 32.09513151 160.07148399 9.8671875 171.62890625 C-12.65460146 182.45564576 -38.00609933 186.2218482 -62 178 C-87.17394641 168.85221836 -105.74421083 152.77675587 -118 129 C-119.81779768 125.05146733 -121.48920943 121.07562108 -123 117 C-123.33257813 116.1234375 -123.66515625 115.246875 -124.0078125 114.34375 C-126.57742283 105.68396086 -127.36267985 97.19150979 -127.3125 88.1875 C-127.30758545 87.13651123 -127.3026709 86.08552246 -127.29760742 85.00268555 C-126.97001585 63.21196642 -118.57844816 42.25561476 -104 26 C-103.19949219 25.10539062 -102.39898438 24.21078125 -101.57421875 23.2890625 C-76.97150391 -2.73514254 -33.68253373 -14.96320513 0 0 Z " fill="#FEFEFE" transform="translate(1824,1540)"/>
</svg>
